<svg xmlns="http://www.w3.org/2000/svg" xmlns:xlink="http://www.w3.org/1999/xlink" viewBox="0 0 812.25 222.69"><defs><style>.cls-1{fill:#fff;}.cls-2{fill:url(#Spitzer540Grad);}.cls-3{fill:#717073;}</style><linearGradient id="Spitzer540Grad" y1="5.73" x2="135.42" y2="141.15" gradientUnits="userSpaceOnUse"><stop offset="0" stop-color="#003767"/><stop offset="0.37" stop-color="#003767"/><stop offset="0.4" stop-color="#003767"/><stop offset="0.47" stop-color="#093e6d"/><stop offset="0.59" stop-color="#21507c"/><stop offset="0.73" stop-color="#496e95"/><stop offset="0.9" stop-color="#7f97b7"/><stop offset="1" stop-color="#a4b3ce"/></linearGradient></defs><title>spitzer-logo</title><g id="Layer_2" data-name="Layer 2"><g id="Layer_1-2" data-name="Layer 1"><path class="cls-1" d="M154.26,5.73H0V160a17.06,17.06,0,0,0,15,15H169.29V20.74A17.09,17.09,0,0,0,154.26,5.73Z"/><path class="cls-2" d="M19.68,159.6,104,157.2,17.34,108.25l92,30.66L50.91,87.38l66.47,36.93L49.2,18l83.14,96.72L107,15.54l41.79,91.69,6-73.86,14.51,72.52V20.74a17.07,17.07,0,0,0-15-15H0V160a17.06,17.06,0,0,0,15,15h86.53Z"/><path class="cls-3" d="M192.31,151.86c9.71,6.15,21.08,9.71,36.48,9.71,20.38,0,37.2-10.43,37.2-33.88,0-32.45-75.81-36.48-75.81-79.84,0-26.53,23.21-43.11,52.35-43.11,8.06,0,21.09,1.18,32.46,5.45l-2.61,14.92C265,21.08,253.43,19,242.3,19c-17.06,0-35.78,7.11-35.78,28.43,0,33.17,75.85,33.41,75.85,81.73,0,33.41-28.7,46.67-54.29,46.67-16.11,0-28.66-3.32-37.43-7.1Z"/><path class="cls-3" d="M299.18,52.12h14.93l-.95,22h.47c3.79-6.63,13-24.88,38.62-24.88,35.53,0,49.74,26.54,49.74,63.26,0,35.77-16.58,63.25-49.74,63.25-19,0-30.33-7.81-37.67-23.45h-.47v70.36H299.18Zm50.7,10c-26.53,0-35.77,28.43-35.77,50.46S323.35,163,349.88,163c28.43,0,35.77-27,35.77-50.46S378.31,62.07,349.88,62.07Z"/><path class="cls-3" d="M440.12,19.9H425.19V0h14.93ZM425.19,52.12h14.93V172.94H425.19Z"/><path class="cls-3" d="M524.69,64.91H497.21v78.18c0,10.9,4,19.9,16.11,19.9a34.67,34.67,0,0,0,13.73-2.84l1,12.31a54.21,54.21,0,0,1-18.24,3.32c-26.53,0-27.48-18.24-27.48-40.27V64.91H458.59V52.12h23.69V23l14.93-5.21V52.12h27.48Z"/><path class="cls-3" d="M538,160.38l72.73-95.47H540.79V52.12H628V64.91l-72.73,95.24H628v12.79H538Z"/><path class="cls-3" d="M725.56,169.15a99.1,99.1,0,0,1-35.06,6.63c-40,0-55-27-55-63.25,0-37,20.37-63.26,50.93-63.26,34.12,0,48.09,27.49,48.09,59.94v7.59H651.88c0,25.58,13.74,46.19,39.8,46.19,10.9,0,26.77-4.5,33.88-9ZM718.22,104c0-21.08-8.53-41.93-30.8-41.93-22,0-35.54,22-35.54,41.93Z"/><path class="cls-3" d="M756.34,79.13c0-13.27,0-18.25-1-27h14.93V75.34h.47c5.45-13.51,15.64-26.07,31-26.07a44.29,44.29,0,0,1,10.42,1.43V66.33a39.07,39.07,0,0,0-10.89-1.42c-23.7,0-30.1,26.54-30.1,48.33v59.7H756.34Z"/><path class="cls-3" d="M358.13,196.67a16.25,16.25,0,0,1,6.3,1.11l.72.35.24-3.56-.3-.15c-1.59-.78-5.11-1.07-7-1.07-9.14,0-15.29,5.86-15.29,14.59s6,14.59,15.29,14.59c1.78,0,5.24-.26,7-1.24l.28-.15-.25-3.44-.74.41c-1.83,1-5.26,1.1-6.27,1.1-7,0-11.34-4.32-11.34-11.27S351.24,196.67,358.13,196.67Z"/><path class="cls-3" d="M410.51,193.35a13,13,0,0,0-9.13,3.34c-2.8,2.64-4.32,6.64-4.27,11.26.1,9.13,5.1,14.58,13.4,14.58s13.31-5.45,13.4-14.58c.06-4.62-1.46-8.62-4.26-11.26A13,13,0,0,0,410.51,193.35Zm0,25.86c-6.53,0-9.45-5.66-9.45-11.27s2.92-11.27,9.45-11.27,9.46,5.66,9.46,11.27S417.05,219.21,410.51,219.21Z"/><polygon class="cls-3" points="470.87 217.02 460.52 193.82 455.16 193.82 455.16 222.06 459.1 222.06 459.1 199.25 469.3 222.06 472.48 222.06 482.34 199.32 482.34 222.06 486.28 222.06 486.28 193.82 481.25 193.82 470.87 217.02"/><path class="cls-3" d="M526.61,193.82h-7.74v28.25h3.94v-11.8h3.5c6,0,9.88-3.23,9.88-8.23C536.19,196.81,532.7,193.82,526.61,193.82Zm5.64,8.22c0,4.1-2.92,4.9-8,4.9h-1.49v-9.8H527C530.38,197.14,532.25,198.88,532.25,202Z"/><path class="cls-3" d="M572.26,193.82l-12.42,28.25h3.94l3.15-7.31H581l3.15,7.31h4.15l-12-28.25Zm7.34,17.62H568.44l5.6-13.22Z"/><polygon class="cls-3" points="635.8 216.61 621.8 194.06 621.65 193.82 617.18 193.82 617.18 222.06 621.12 222.06 621.12 199.74 635.01 222.06 639.74 222.06 639.74 193.82 635.8 193.82 635.8 216.61"/><rect class="cls-3" x="671.57" y="193.82" width="3.94" height="28.25"/><polygon class="cls-3" points="711.63 209.21 722.49 209.21 722.49 205.89 711.63 205.89 711.63 197.14 723.08 197.14 723.08 193.82 707.68 193.82 707.68 222.06 723.58 222.06 723.58 218.74 711.63 218.74 711.63 209.21"/><path class="cls-3" d="M763.33,205.77c-2.94-1.46-5.49-2.72-5.49-4.9,0-3.9,4.45-4.2,5.81-4.2a12.36,12.36,0,0,1,5.08,1l.64.33.66-3.53-.41-.14a19.51,19.51,0,0,0-5.92-.93c-5.77,0-9.8,3.12-9.8,7.6,0,4.12,4.1,6.21,7.71,8.05,2.94,1.5,5.71,2.92,5.71,5.11,0,3.2-2.26,5.1-6.06,5.1a11.71,11.71,0,0,1-6.18-1.52l-.71-.43-.42,3.92.35.14a18.36,18.36,0,0,0,6.84,1.21c5,0,10.12-2.53,10.12-8.18C771.26,209.7,767.05,207.61,763.33,205.77Z"/></g></g></svg>